<svg xmlns="http://www.w3.org/2000/svg" version="1.0" preserveAspectRatio="xMidYMid meet" viewBox="57.41 40.86 589.55 692.1">
  <metadata>
    Created by potrace 1.16, written by Peter Selinger 2001-2019
  </metadata>
  <g transform="translate(0.000000,767.000000) scale(0.100000,-0.100000)" fill="#000000" stroke="none">
    <path
        d="M3563 7243 c-17 -50 -189 -474 -207 -513 -16 -35 -27 -46 -49 -48 -16 -2 -27 -9 -27 -19 0 -13 8 -15 46 -9 26 3 71 6 101 6 39 0 54 4 51 13 -3 6 -19 13 -36 15 -24 2 -32 8 -32 22 0 20 38 131 49 141 3 4 58 9 123 11 l116 5 31 -70 c17 -38 31 -76 31 -83 0 -7 -16 -16 -35 -20 -19 -3 -35 -11 -35 -18 0 -8 35 -10 122 -8 86 2 143 -2 196 -13 48 -11 78 -13 84 -7 6 6 -1 13 -21 20 -17 6 -34 18 -37 27 -6 14 71 397 85 422 3 6 69 -112 145 -264 113 -223 145 -279 170 -294 42 -25 56 -24 56 6 0 26 45 243 86 418 14 59 31 108 37 109 7 1 23 2 37 2 55 2 26 22 -62 43 -112 27 -108 26 -108 10 0 -7 16 -19 35 -26 27 -10 35 -18 35 -37 0 -35 -80 -407 -90 -417 -4 -5 -71 120 -150 277 l-142 285 -51 11 c-28 6 -62 13 -74 16 -17 5 -23 2 -23 -10 0 -9 8 -16 18 -16 11 0 27 -8 36 -19 16 -17 14 -30 -29 -232 -26 -118 -54 -230 -63 -249 -15 -30 -21 -35 -47 -32 -76 6 -52 -32 -264 415 -69 145 -92 173 -108 130z m63 -219 c30 -64 53 -118 52 -119 -10 -8 -198 -11 -198 -2 0 11 84 237 88 237 2 0 28 -52 58 -116z"/>
    <path
        d="M2865 7159 c-38 -15 -78 -28 -88 -29 -11 0 -17 -6 -14 -12 2 -8 19 -12 45 -10 36 3 43 0 55 -25 18 -34 148 -395 145 -399 -4 -3 -176 98 -385 227 l-162 100 -71 -22 c-43 -14 -70 -28 -70 -37 0 -10 7 -12 26 -8 41 11 61 -2 79 -47 48 -118 145 -402 145 -423 0 -19 -10 -29 -45 -45 l-45 -21 -77 48 c-43 27 -161 101 -262 166 -142 91 -187 115 -197 107 -8 -6 -12 -15 -9 -19 8 -13 105 -551 105 -581 0 -18 -8 -34 -19 -41 -10 -6 -17 -17 -14 -24 2 -7 -7 -20 -22 -30 l-26 -17 -135 134 c-75 74 -158 160 -186 192 l-51 58 27 28 c19 20 24 31 16 36 -12 7 -172 -139 -178 -162 -5 -20 19 -15 44 8 l23 22 33 -28 c69 -58 328 -337 328 -354 0 -10 -9 -26 -20 -36 -14 -12 -17 -22 -11 -28 11 -11 170 132 183 163 3 9 38 38 77 65 72 49 83 75 23 53 -28 -11 -34 -10 -42 2 -10 17 -35 148 -29 153 24 20 188 127 193 127 11 0 124 -78 132 -92 4 -6 -5 -21 -22 -34 -19 -15 -25 -27 -19 -33 7 -7 41 11 100 52 50 34 126 75 170 92 85 32 106 52 50 47 -29 -2 -36 2 -50 28 -17 32 -145 379 -145 391 0 5 120 -65 267 -154 232 -140 273 -161 307 -160 21 1 41 4 44 7 2 3 -6 29 -18 58 -55 128 -170 463 -165 480 4 10 17 21 31 24 24 6 35 35 12 33 -7 -1 -44 -14 -83 -30z m-668 -699 c-76 -58 -148 -100 -152 -88 -6 21 -45 219 -45 234 0 7 48 -18 110 -58 109 -70 110 -70 87 -88z"/>
    <path
        d="M4823 6954 c-57 -21 -123 -82 -158 -145 -42 -78 -47 -185 -12 -262 47 -102 134 -166 291 -211 127 -37 125 -38 163 43 24 51 39 70 55 73 12 2 23 8 24 13 4 15 -185 105 -193 92 -4 -6 2 -16 12 -21 10 -6 29 -20 43 -32 l25 -21 -33 -61 c-18 -34 -36 -62 -39 -62 -21 1 -112 30 -147 48 -52 26 -108 88 -125 138 -49 144 39 330 177 370 90 26 197 -10 287 -97 51 -49 52 -52 32 -116 -13 -41 18 -25 52 27 l32 49 -57 51 c-31 28 -94 70 -140 92 -73 37 -92 42 -165 45 -56 2 -95 -2 -124 -13z"/>
    <path
        d="M5440 6708 c0 -6 10 -22 22 -35 22 -23 22 -25 5 -56 -23 -42 -280 -357 -302 -369 -11 -7 -24 -5 -40 6 -30 20 -35 20 -35 2 0 -7 17 -26 38 -42 20 -15 78 -62 127 -104 50 -41 110 -91 133 -109 l44 -34 51 51 c36 36 48 55 41 62 -7 7 -22 1 -48 -19 -37 -30 -39 -30 -70 -14 -40 21 -166 124 -166 136 0 6 32 49 71 98 81 100 74 99 157 24 56 -50 60 -63 36 -99 -24 -37 4 -46 30 -10 12 16 38 48 58 72 21 24 38 47 38 51 0 21 -16 19 -41 -5 l-28 -27 -38 27 c-21 14 -55 41 -75 59 l-37 32 72 87 c81 98 71 97 167 17 79 -65 90 -88 61 -125 -14 -18 -18 -31 -12 -37 7 -7 27 5 59 36 l50 46 -27 24 c-14 13 -73 61 -131 107 -58 46 -125 101 -149 122 -46 40 -61 46 -61 26z"/>
    <path
        d="M5880 6335 c0 -3 10 -20 23 -36 l22 -31 -60 -56 c-33 -32 -121 -108 -195 -170 -126 -105 -137 -112 -169 -107 -20 4 -32 2 -30 -4 5 -12 163 -202 228 -273 24 -26 49 -48 56 -48 6 0 17 -24 24 -54 12 -53 53 -128 95 -175 31 -35 114 -71 164 -71 90 0 167 69 159 141 -3 19 -21 72 -41 118 -20 45 -36 97 -36 115 0 65 68 113 134 95 56 -16 106 -83 120 -161 6 -34 4 -39 -29 -64 -49 -37 -31 -49 34 -22 l53 23 -7 40 c-8 52 -45 131 -80 173 -64 76 -166 94 -246 43 -81 -51 -86 -101 -25 -241 41 -92 44 -127 16 -162 -43 -55 -122 -60 -179 -12 -39 32 -81 119 -81 166 0 30 6 42 30 60 17 12 30 28 30 35 0 17 -3 17 -60 -12 -62 -32 -64 -26 -5 12 25 15 45 31 45 35 0 18 -23 16 -66 -4 l-46 -23 -84 89 c-46 49 -84 94 -84 100 0 13 31 40 248 224 73 61 139 112 147 112 7 0 22 -12 33 -27 15 -20 24 -25 32 -17 7 7 -4 26 -39 67 -28 31 -62 73 -77 92 -22 30 -54 47 -54 30z"/>
    <path
        d="M1314 6105 c-27 -13 -66 -42 -85 -62 -34 -35 -229 -299 -229 -309 0 -10 24 -2 47 16 24 18 27 19 56 3 38 -19 227 -155 320 -230 119 -96 96 -119 -190 -186 l-103 -25 0 60 c0 99 -45 158 -129 166 -81 7 -124 -39 -185 -199 -14 -35 -36 -90 -50 -122 -14 -32 -26 -62 -26 -67 0 -20 20 -9 35 20 9 17 21 30 28 30 20 0 450 -189 466 -205 13 -13 12 -20 -8 -60 -12 -25 -30 -49 -40 -54 -9 -5 -138 -37 -287 -71 -319 -72 -304 -68 -304 -84 0 -6 93 -75 207 -151 280 -189 303 -208 303 -245 0 -18 5 -30 13 -30 9 0 18 25 25 73 7 39 15 84 18 100 5 20 3 27 -9 27 -9 0 -18 -13 -22 -30 -4 -16 -11 -32 -16 -36 -6 -3 -33 8 -62 26 -96 58 -90 41 -64 176 l22 118 60 13 c33 7 73 12 88 13 27 0 28 -2 25 -37 -2 -22 2 -38 10 -41 6 -2 12 -2 12 1 0 22 32 187 40 202 8 16 77 176 97 223 10 24 -24 12 -35 -13 -7 -14 -18 -28 -25 -31 -14 -5 -209 74 -385 156 -92 43 -93 44 -87 74 10 47 39 98 68 120 50 37 123 18 164 -43 27 -40 28 -64 7 -127 -8 -25 -14 -48 -12 -50 2 -2 31 5 63 15 33 10 118 31 188 47 l128 28 30 63 c16 34 66 111 111 170 121 162 144 233 114 352 -48 187 -239 292 -392 216z m172 -80 c27 -13 73 -48 101 -76 110 -109 108 -232 -4 -359 l-40 -44 -29 18 c-64 41 -341 246 -358 265 -19 21 -19 22 0 57 26 50 107 132 146 149 52 23 127 19 184 -10z m-497 -1381 c-10 -53 -20 -98 -22 -100 -1 -1 -52 29 -112 68 -64 43 -103 74 -94 77 30 10 205 49 225 50 l21 1 -18 -96z"/>
    <path
        d="M3460 5156 c-110 -31 -190 -88 -226 -162 -23 -46 -26 -64 -21 -112 14 -164 157 -285 337 -286 65 -1 82 3 128 28 99 55 148 158 140 290 -8 117 -56 197 -143 237 -47 22 -146 24 -215 5z m208 -82 c38 -28 72 -99 72 -152 0 -35 -11 -63 -57 -142 -35 -60 -66 -101 -78 -104 -109 -30 -248 34 -300 137 -38 77 -31 133 23 190 79 84 268 123 340 71z"/>
    <path
        d="M6315 5050 c7 -23 4 -24 -137 -70 l-88 -28 -9 32 c-7 26 -5 34 13 48 22 19 11 23 -30 12 -21 -6 -21 -7 15 -115 32 -97 38 -108 56 -103 34 10 41 24 13 24 -24 0 -37 19 -38 57 0 7 43 26 95 43 100 31 135 37 135 20 0 -5 4 -10 9 -10 4 0 1 25 -8 55 -9 30 -20 55 -24 55 -5 0 -5 -9 -2 -20z"/>
    <path
        d="M5465 4949 c-463 -206 -990 -355 -1505 -426 -160 -22 -665 -25 -810 -5 -404 57 -776 191 -999 359 -50 38 -63 40 -86 16 -15 -14 -16 -30 -11 -107 29 -396 162 -705 410 -951 144 -143 339 -268 524 -335 34 -12 62 -28 62 -34 0 -10 -278 -676 -286 -685 -2 -3 -15 6 -29 19 -31 29 -28 44 30 130 56 83 64 123 65 303 0 134 -2 149 -20 167 -25 25 -101 27 -176 3 l-52 -16 -79 68 c-107 92 -177 125 -269 125 -92 0 -159 -32 -215 -102 -57 -72 -74 -139 -73 -283 0 -131 8 -178 55 -331 l31 -101 -40 -68 c-60 -99 -141 -181 -192 -195 -68 -18 -153 4 -207 53 -12 11 -39 55 -59 98 -20 43 -43 80 -51 83 -31 12 -49 -12 -63 -83 -11 -59 -21 -81 -68 -143 -30 -40 -71 -106 -91 -147 -30 -64 -36 -88 -39 -161 -5 -104 12 -152 80 -226 25 -28 38 -49 31 -51 -27 -9 -136 -85 -177 -123 -141 -130 -213 -358 -187 -593 20 -178 79 -284 186 -333 45 -21 65 -24 186 -24 l136 0 7 -77 c18 -200 85 -341 187 -394 68 -34 341 -51 478 -28 147 23 248 77 367 194 99 98 143 180 151 279 5 62 14 79 28 56 4 -6 25 -20 48 -31 34 -18 54 -21 117 -17 l76 4 27 -47 c63 -113 157 -96 227 40 12 25 30 43 50 49 16 6 54 33 83 60 l52 49 115 -8 c421 -28 858 12 1129 106 95 32 121 49 121 79 0 13 -14 84 -31 157 -42 188 -129 589 -129 600 0 5 6 9 13 9 7 0 76 31 153 69 143 71 307 173 429 268 411 320 717 793 845 1305 17 71 30 133 28 139 -4 11 -1439 -1690 -1464 -1734 -10 -18 -12 -16 -17 14 -3 19 -26 140 -51 269 -81 424 -126 761 -126 936 l0 102 78 48 c672 416 1064 844 1157 1267 21 95 18 294 -6 342 -20 42 -48 41 -154 -6z m55 -367 c-104 -380 -497 -794 -1098 -1157 -82 -50 -114 -75 -119 -93 -11 -44 5 -344 26 -502 47 -339 155 -917 267 -1418 25 -112 43 -209 41 -216 -10 -26 -217 -81 -422 -112 -115 -18 -565 -30 -707 -20 l-93 7 -2 52 c-3 62 -36 132 -98 207 -29 35 -43 61 -39 70 4 8 9 40 11 70 4 50 1 61 -35 120 l-39 65 19 70 c53 188 72 380 47 454 -22 62 -90 71 -120 15 -16 -31 -25 -30 -34 4 -19 79 -151 305 -266 459 l-32 42 167 396 c92 219 166 407 164 419 -2 17 -21 27 -93 52 -202 70 -372 172 -517 312 -199 191 -323 418 -377 690 -19 99 -33 202 -27 202 2 0 35 -19 72 -42 209 -127 502 -227 814 -278 671 -109 1498 20 2360 368 l145 58 3 -109 c2 -86 -2 -125 -18 -185z m-3197 -1087 c20 -8 77 -49 126 -91 102 -85 135 -96 201 -70 22 9 57 16 76 16 l37 0 -6 -47 c-22 -190 -30 -238 -38 -241 -5 -2 -9 -11 -9 -19 0 -9 -14 -46 -32 -82 -18 -38 -33 -88 -36 -117 -4 -52 -4 -52 61 -122 77 -85 156 -188 169 -222 5 -14 15 -32 22 -40 7 -8 30 -55 50 -105 21 -49 41 -99 46 -110 41 -96 66 -217 55 -272 l-7 -38 -22 66 c-31 88 -74 166 -107 190 -94 67 -134 -37 -110 -284 l11 -117 -71 -258 c-88 -320 -116 -409 -138 -447 -16 -27 -23 -30 -77 -33 -64 -3 -169 12 -210 30 -17 8 -23 16 -18 27 38 86 46 131 46 241 -1 145 -21 243 -72 346 -37 77 -94 143 -159 184 l-23 16 31 46 c17 26 39 76 48 113 14 56 14 76 4 132 -13 69 -46 145 -89 202 -18 24 -31 62 -42 122 -18 96 -12 129 31 175 l20 22 60 -31 c107 -55 258 -39 311 33 35 48 69 226 54 284 -8 33 -41 35 -50 4 -3 -13 -6 -50 -6 -83 0 -92 -10 -103 -134 -157 -98 -43 -113 -47 -142 -38 -56 19 -78 52 -117 172 -96 303 -70 521 72 595 52 27 130 31 184 8z m-744 -1076 c18 -16 36 -29 40 -29 5 0 14 -14 21 -31 10 -23 15 -27 22 -17 7 9 8 7 4 -7 -3 -11 -5 -398 -6 -860 0 -462 0 -866 -1 -899 0 -32 3 -56 8 -53 5 3 9 -3 9 -13 0 -18 -11 -20 -34 -7 -40 26 -92 214 -92 339 0 37 -5 70 -10 73 -6 3 -77 6 -160 6 -174 -1 -211 9 -266 72 -56 67 -79 156 -79 312 1 199 45 314 165 435 60 61 140 110 243 149 44 17 35 46 -27 86 -106 68 -146 149 -126 254 13 71 60 163 118 235 54 67 58 74 67 101 5 16 13 7 39 -48 18 -38 47 -82 65 -98z m1351 -409 c5 -19 11 -55 15 -80 9 -72 26 -140 35 -140 5 0 12 -15 15 -32 17 -81 54 -79 97 5 18 34 31 65 30 70 -1 4 3 7 9 7 5 0 7 5 3 12 -4 6 -3 8 4 4 13 -8 5 -38 -30 -116 -38 -84 -39 -86 -23 -158 7 -37 16 -112 18 -167 3 -60 11 -116 21 -139 11 -26 16 -68 16 -128 0 -80 -3 -97 -32 -156 -17 -37 -36 -97 -42 -134 -6 -37 -14 -68 -19 -68 -4 0 -19 25 -33 55 -30 66 -43 74 -98 64 -102 -20 -170 -3 -197 48 -19 34 -14 124 9 175 23 52 108 158 126 158 8 0 19 7 26 15 10 12 8 26 -15 76 -36 80 -31 130 18 202 l36 52 -14 60 c-34 143 -55 367 -38 410 5 14 11 10 30 -21 13 -22 27 -55 33 -74z m-617 -1001 c39 -13 99 -23 164 -27 l102 -5 -17 -29 c-9 -16 -53 -65 -98 -108 -88 -85 -198 -147 -309 -175 -61 -15 -186 -19 -265 -7 l-45 7 -13 61 c-20 94 -11 107 88 127 104 20 211 71 275 130 28 25 51 46 53 47 1 0 31 -9 65 -21z"/>
    <path
        d="M6369 4843 c-8 -11 -31 -39 -51 -63 l-37 -43 -31 27 c-53 44 -110 27 -110 -33 0 -43 34 -180 38 -154 4 24 12 27 155 58 75 17 79 17 93 -1 15 -18 15 -18 10 1 -3 11 -8 37 -12 58 -3 20 -10 37 -14 37 -5 0 -6 -9 -3 -20 3 -11 3 -20 1 -20 -3 0 -56 -11 -118 -25 -125 -29 -130 -27 -130 32 0 34 21 53 58 53 23 0 52 -30 52 -53 0 -26 9 -21 54 30 73 83 77 89 68 114 -9 22 -9 22 -23 2z"/>
    <path
        d="M6242 4511 c-39 -25 -52 -55 -52 -119 0 -119 102 -185 207 -135 88 41 98 170 19 242 -37 35 -127 41 -174 12z m179 -50 c71 -72 2 -181 -115 -181 -43 0 -91 38 -99 79 -15 76 40 131 131 131 46 0 58 -4 83 -29z"/>
    <path
        d="M576 4198 c3 -51 7 -99 10 -105 7 -26 24 -12 24 21 0 18 6 39 14 45 14 12 213 30 331 31 127 0 175 -46 182 -174 3 -55 0 -79 -14 -106 -30 -58 -64 -68 -282 -81 -185 -11 -195 -11 -208 6 -7 11 -13 29 -13 42 0 14 -6 23 -16 23 -10 0 -14 -6 -10 -17 2 -10 7 -66 11 -125 4 -60 11 -106 16 -102 5 3 9 16 9 29 0 44 21 53 147 60 328 18 357 26 395 104 17 35 21 63 21 132 0 78 -3 95 -29 146 -23 44 -39 62 -74 80 -45 24 -46 24 -259 17 -229 -7 -231 -7 -231 44 0 12 -6 22 -14 22 -12 0 -14 -16 -10 -92z"/>
    <path
        d="M6216 4168 c-12 -17 -16 -46 -15 -113 0 -64 3 -84 9 -67 8 19 17 22 63 22 30 0 82 -3 116 -7 51 -5 64 -10 71 -27 6 -15 9 -1 9 44 0 49 -3 59 -9 43 -9 -21 -16 -23 -93 -23 -145 0 -174 16 -145 77 26 55 108 36 108 -25 1 -23 2 -25 11 -9 13 22 3 55 -24 85 -28 30 -80 30 -101 0z"/>
    <path
        d="M6213 3922 c-19 -12 -30 -51 -38 -132 -6 -66 -5 -73 7 -56 14 17 20 17 109 6 115 -16 143 -25 135 -45 -3 -8 -1 -15 4 -15 6 0 10 10 10 23 0 12 3 40 5 62 5 32 4 36 -4 18 -6 -13 -16 -23 -23 -23 -43 1 -212 30 -220 38 -6 6 -7 24 -3 41 16 76 114 63 115 -15 1 -26 2 -27 12 -10 14 25 -6 92 -32 106 -22 12 -60 13 -77 2z"/>
    <path
        d="M6152 3645 c-14 -47 -15 -81 -2 -47 11 25 13 25 133 -9 85 -25 103 -48 87 -109 -17 -62 -39 -68 -152 -39 -74 19 -93 28 -92 42 3 34 -12 16 -24 -28 -16 -59 -15 -73 2 -50 14 19 16 19 110 -4 53 -13 107 -20 120 -17 29 7 66 77 66 123 0 43 -33 81 -83 93 -132 34 -146 40 -149 63 -3 18 -6 14 -16 -18z"/>
    <path
        d="M1107 3641 c-59 -21 -71 -22 -93 -11 -42 23 -42 21 22 -188 2 -7 9 -10 14 -7 6 4 8 25 4 55 l-6 48 67 22 c77 26 75 27 121 -69 54 -113 40 -213 -43 -302 -77 -82 -207 -119 -298 -84 -94 35 -145 108 -167 233 -15 91 -4 132 40 151 40 18 44 45 5 37 -16 -3 -45 -8 -66 -12 l-37 -6 6 -82 c22 -270 166 -433 366 -412 197 20 313 190 264 386 -18 70 -71 187 -108 235 l-23 31 -68 -25z"/>
    <path
        d="M6059 3318 c-12 -16 -24 -49 -27 -73 -4 -37 -1 -47 22 -70 38 -38 83 -32 113 15 48 76 56 82 85 71 38 -14 47 -55 22 -100 -16 -29 -25 -36 -47 -34 -36 2 -35 -12 2 -25 27 -9 32 -8 47 16 19 29 30 99 20 136 -4 15 -20 33 -38 42 -39 20 -70 8 -94 -38 -33 -65 -72 -86 -102 -56 -32 32 9 125 49 113 28 -9 23 8 -6 22 -22 10 -27 8 -46 -19z"/>
    <path
        d="M5877 2925 c-15 -30 -23 -55 -18 -55 5 0 12 7 15 16 5 12 22 7 98 -33 51 -26 102 -57 113 -69 l20 -22 45 85 44 85 -23 19 c-30 24 -49 25 -28 1 10 -10 17 -24 17 -31 0 -22 -40 -91 -53 -91 -6 0 -55 24 -107 53 -80 44 -95 56 -92 75 5 34 -1 27 -31 -33z"/>
    <path
        d="M5750 2721 c0 -4 32 -61 71 -125 40 -66 69 -123 65 -131 -10 -26 8 -16 32 18 26 39 29 55 6 36 -14 -11 -19 -10 -35 10 -25 31 -24 41 11 89 28 39 31 40 62 31 18 -5 34 -9 36 -9 2 0 0 -9 -3 -20 -10 -32 2 -23 35 25 l31 45 -28 -6 c-15 -3 -84 6 -152 21 -143 29 -131 27 -131 16z"/>
    <path
        d="M5617 2542 l-27 -28 40 -102 c22 -57 40 -107 40 -111 0 -5 -50 7 -111 26 l-111 34 -24 -22 c-26 -24 -34 -50 -9 -29 12 10 25 4 72 -38 98 -85 116 -107 108 -134 -7 -20 -3 -19 29 11 20 19 36 36 36 38 0 2 -10 1 -22 -2 -18 -4 -39 10 -93 62 -50 47 -63 64 -45 58 14 -4 67 -21 118 -37 52 -16 95 -28 97 -26 2 2 -17 52 -41 112 -24 60 -43 111 -41 112 1 2 33 -25 70 -58 60 -53 68 -64 62 -87 -6 -24 -4 -24 34 14 44 42 53 62 21 45 -17 -9 -31 0 -105 71 -68 65 -83 85 -74 96 22 26 2 23 -24 -5z"/>
    <path
        d="M5218 2162 c-39 -25 -53 -51 -19 -32 18 9 27 0 79 -72 33 -46 58 -85 56 -86 -2 -3 -228 59 -265 73 -8 3 -27 -6 -44 -20 -25 -22 -26 -25 -9 -20 24 6 48 -20 119 -127 31 -48 36 -60 25 -73 -17 -21 -3 -19 36 6 34 21 47 43 19 33 -8 -4 -22 -1 -30 6 -20 17 -107 141 -102 146 2 2 58 -12 125 -31 122 -35 172 -43 172 -25 0 5 -28 49 -63 97 -82 115 -81 111 -66 129 20 24 6 23 -33 -4z"/>
    <path
        d="M4835 1843 c3 -49 8 -113 11 -145 3 -34 1 -59 -6 -63 -5 -3 -10 -11 -10 -16 0 -5 19 1 43 13 36 19 39 23 20 26 -13 2 -23 9 -23 15 0 7 -3 22 -6 34 -5 18 2 26 46 48 l52 27 29 -28 c26 -25 27 -28 11 -40 -28 -21 -1 -15 48 11 27 15 38 24 26 25 -10 0 -67 41 -126 90 -59 50 -111 90 -115 90 -3 0 -3 -39 0 -87z"/>
  </g>
</svg>
